<?xml version="1.0" encoding="utf-8"?>
<!-- Generator: Adobe Illustrator 16.0.0, SVG Export Plug-In . SVG Version: 6.00 Build 0)  -->
<!DOCTYPE svg PUBLIC "-//W3C//DTD SVG 1.1//EN" "http://www.w3.org/Graphics/SVG/1.1/DTD/svg11.dtd">
<svg version="1.1" id="Layer_1" xmlns="http://www.w3.org/2000/svg" xmlns:xlink="http://www.w3.org/1999/xlink" x="0px" y="0px"
	 width="283.46px" height="283.46px" viewBox="0 0 283.46 283.46" enable-background="new 0 0 283.46 283.46" xml:space="preserve">
<rect x="0" fill="#4B4495" width="283.46" height="283.46"/>
<g>
	<path fill="#FDFDFD" d="M101.996,201.08l-24.623-24.624l7.489-7.488l23.637,13.841l-13.907-23.569l7.522-7.522l24.623,24.622
		l-4.748,4.748l-19.859-19.859l14.861,24.857l-5.182,5.182l-24.924-14.793l19.859,19.858L101.996,201.08z"/>
	<path fill="#FDFDFD" d="M137.117,154.926l4.848-4.848c1.426,2.407,1.938,4.898,1.537,7.472c-0.402,2.576-1.672,4.933-3.811,7.071
		c-2.63,2.63-5.597,3.831-8.901,3.603c-3.304-0.229-6.466-1.853-9.486-4.872c-2.976-2.976-4.563-6.078-4.764-9.312
		c-0.202-3.231,1.014-6.162,3.644-8.792c2.786-2.787,5.781-4.093,8.985-3.92c3.203,0.172,6.366,1.818,9.486,4.939
		c0.345,0.346,0.601,0.607,0.769,0.785c0.167,0.179,0.318,0.357,0.451,0.535l-12.135,12.135c1.494,1.361,2.917,2.088,4.271,2.183
		c1.354,0.095,2.622-0.448,3.803-1.63c0.835-0.835,1.356-1.686,1.562-2.549C137.582,156.862,137.495,155.93,137.117,154.926z
		 M124.546,156.531l7.155-7.154c-1.27-1.181-2.53-1.788-3.778-1.822c-1.249-0.032-2.441,0.519-3.578,1.654
		c-1.059,1.059-1.568,2.217-1.529,3.47S123.432,155.216,124.546,156.531z"/>
	<path fill="#FDFDFD" d="M150.94,152.134l-18.169-18.169l4.764-4.764l2.156,2.157c-0.201-1.56-0.06-3.023,0.426-4.388
		c0.484-1.365,1.295-2.616,2.432-3.753c2.005-2.006,4.028-2.987,6.068-2.942c2.039,0.044,4.107,1.114,6.201,3.209l12.387,12.387
		l-4.864,4.864l-10.982-10.982c-1.304-1.303-2.454-2.014-3.453-2.131c-0.997-0.117-1.991,0.321-2.983,1.313
		c-1.148,1.148-1.713,2.399-1.696,3.753c0.018,1.354,0.617,2.622,1.797,3.803l10.782,10.782L150.94,152.134z"/>
	<path fill="#FDFDFD" d="M164.446,126.793l4.848-4.848c0.97,0.881,1.992,1.235,3.068,1.062c1.075-0.173,2.237-0.883,3.485-2.131
		c0.946-0.947,1.521-1.839,1.721-2.675c0.202-0.835,0.012-1.543-0.567-2.122c-0.824-0.825-2.413-0.474-4.765,1.053
		c-0.959,0.624-1.732,1.109-2.323,1.454c-2.965,1.761-5.319,2.688-7.063,2.783c-1.744,0.095-3.318-0.56-4.722-1.964
		c-1.862-1.861-2.664-4.006-2.407-6.436c0.256-2.429,1.531-4.792,3.827-7.087c2.431-2.43,4.879-3.797,7.347-4.104
		c2.469-0.306,4.728,0.477,6.779,2.349l-4.73,4.731c-0.804-0.736-1.691-1.04-2.667-0.911c-0.975,0.128-1.952,0.683-2.933,1.664
		c-0.926,0.925-1.475,1.752-1.647,2.482c-0.173,0.729,0.02,1.374,0.576,1.931c0.725,0.724,2.574,0.156,5.55-1.705
		c0.68-0.435,1.221-0.774,1.622-1.02c2.987-1.85,5.324-2.817,7.012-2.901c1.688-0.083,3.262,0.604,4.722,2.065
		c2.063,2.062,2.907,4.36,2.533,6.895c-0.373,2.536-1.947,5.191-4.722,7.966c-2.508,2.507-5.032,3.906-7.573,4.195
		c-2.54,0.29-4.798-0.552-6.77-2.524L164.446,126.793z"/>
	<path fill="#FDFDFD" d="M198.23,100.332c0.333,1.561,0.253,3.084-0.243,4.572s-1.402,2.889-2.716,4.204
		c-1.761,1.761-3.618,2.616-5.575,2.567c-1.955-0.05-3.857-1-5.708-2.851c-1.716-1.716-2.549-3.501-2.5-5.357
		c0.051-1.855,1.007-4.048,2.868-6.578c0.424-0.58,0.991-1.326,1.704-2.24c1.794-2.329,2.229-3.957,1.304-4.881
		c-0.735-0.736-1.491-1.033-2.266-0.895c-0.773,0.139-1.695,0.744-2.766,1.814c-0.98,0.981-1.537,1.928-1.672,2.841
		c-0.134,0.915,0.162,1.733,0.887,2.458l0.268,0.267l-4.548,4.547l-0.333-0.334c-1.861-1.861-2.666-3.981-2.416-6.36
		c0.251-2.379,1.535-4.728,3.853-7.046c2.541-2.542,4.929-4.048,7.163-4.522s4.183,0.12,5.843,1.78l10.33,10.331
		c0.758,0.758,1.401,1.246,1.93,1.463c0.53,0.217,1.073,0.237,1.631,0.059l0.818,0.819l-5.064,5.065
		c-0.479-0.145-0.953-0.362-1.421-0.652S198.675,100.755,198.23,100.332z M191.459,93.729c-0.423,1.159-1.038,2.366-1.846,3.619
		c-0.809,1.254-1.223,1.903-1.245,1.948c-0.613,1.104-0.905,2.009-0.879,2.716c0.028,0.708,0.366,1.385,1.012,2.031
		c0.67,0.669,1.419,0.984,2.248,0.945c0.831-0.039,1.614-0.426,2.35-1.161c1.315-1.315,1.978-2.72,1.989-4.212
		c0.01-1.494-0.625-2.881-1.905-4.163L191.459,93.729z"/>
</g>
</svg>
